<mxfile host="app.diagrams.net" agent="Mozilla/5.0 (Windows NT 10.0; Win64; x64) AppleWebKit/537.36 (KHTML, like Gecko) Chrome/128.0.0.0 Safari/537.36 OPR/114.0.0.0" version="25.0.1">
  <diagram name="Page-1" id="UQ7usZTPQngPJ84AaQsf">
    <mxGraphModel dx="751" dy="751" grid="1" gridSize="10" guides="1" tooltips="1" connect="1" arrows="1" fold="1" page="1" pageScale="1" pageWidth="827" pageHeight="1169" math="0" shadow="0">
      <root>
        <mxCell id="0" />
        <mxCell id="1" parent="0" />
        <mxCell id="JnxBYnWDBMj8whs_ps-o-9" style="edgeStyle=orthogonalEdgeStyle;rounded=0;orthogonalLoop=1;jettySize=auto;html=1;exitX=1;exitY=0.5;exitDx=0;exitDy=0;entryX=0;entryY=0.5;entryDx=0;entryDy=0;" parent="1" source="JnxBYnWDBMj8whs_ps-o-2" target="JnxBYnWDBMj8whs_ps-o-5" edge="1">
          <mxGeometry relative="1" as="geometry" />
        </mxCell>
        <mxCell id="JnxBYnWDBMj8whs_ps-o-2" value="Arduino mictocontroller" style="rounded=1;whiteSpace=wrap;html=1;" parent="1" vertex="1">
          <mxGeometry x="30" y="170" width="120" height="60" as="geometry" />
        </mxCell>
        <mxCell id="K3DkYKGOGh4tOTdBUoB2-2" style="edgeStyle=orthogonalEdgeStyle;rounded=0;orthogonalLoop=1;jettySize=auto;html=1;exitX=1;exitY=0.5;exitDx=0;exitDy=0;entryX=0.5;entryY=0;entryDx=0;entryDy=0;" edge="1" parent="1" source="JnxBYnWDBMj8whs_ps-o-4" target="K3DkYKGOGh4tOTdBUoB2-1">
          <mxGeometry relative="1" as="geometry" />
        </mxCell>
        <mxCell id="JnxBYnWDBMj8whs_ps-o-4" value="LCD screen" style="rounded=1;whiteSpace=wrap;html=1;" parent="1" vertex="1">
          <mxGeometry x="360" y="110" width="120" height="60" as="geometry" />
        </mxCell>
        <mxCell id="JnxBYnWDBMj8whs_ps-o-10" style="edgeStyle=orthogonalEdgeStyle;rounded=0;orthogonalLoop=1;jettySize=auto;html=1;exitX=0.5;exitY=0;exitDx=0;exitDy=0;entryX=0;entryY=0.5;entryDx=0;entryDy=0;" parent="1" source="JnxBYnWDBMj8whs_ps-o-5" target="JnxBYnWDBMj8whs_ps-o-4" edge="1">
          <mxGeometry relative="1" as="geometry" />
        </mxCell>
        <mxCell id="JnxBYnWDBMj8whs_ps-o-14" value="Display distance/warning" style="edgeLabel;html=1;align=center;verticalAlign=middle;resizable=0;points=[];" parent="JnxBYnWDBMj8whs_ps-o-10" vertex="1" connectable="0">
          <mxGeometry x="0.04" y="4" relative="1" as="geometry">
            <mxPoint x="-18" y="4" as="offset" />
          </mxGeometry>
        </mxCell>
        <mxCell id="JnxBYnWDBMj8whs_ps-o-11" style="edgeStyle=orthogonalEdgeStyle;rounded=0;orthogonalLoop=1;jettySize=auto;html=1;exitX=0.5;exitY=1;exitDx=0;exitDy=0;entryX=0;entryY=0.5;entryDx=0;entryDy=0;" parent="1" source="JnxBYnWDBMj8whs_ps-o-5" target="JnxBYnWDBMj8whs_ps-o-7" edge="1">
          <mxGeometry relative="1" as="geometry" />
        </mxCell>
        <mxCell id="JnxBYnWDBMj8whs_ps-o-13" value="Turn on/off" style="edgeLabel;html=1;align=center;verticalAlign=middle;resizable=0;points=[];" parent="JnxBYnWDBMj8whs_ps-o-11" vertex="1" connectable="0">
          <mxGeometry x="-0.1059" relative="1" as="geometry">
            <mxPoint as="offset" />
          </mxGeometry>
        </mxCell>
        <mxCell id="JnxBYnWDBMj8whs_ps-o-5" value="Ultrasonic sensor input" style="rounded=1;whiteSpace=wrap;html=1;" parent="1" vertex="1">
          <mxGeometry x="180" y="170" width="120" height="60" as="geometry" />
        </mxCell>
        <mxCell id="JnxBYnWDBMj8whs_ps-o-12" style="edgeStyle=orthogonalEdgeStyle;rounded=0;orthogonalLoop=1;jettySize=auto;html=1;exitX=0.5;exitY=1;exitDx=0;exitDy=0;entryX=0.5;entryY=0;entryDx=0;entryDy=0;" parent="1" source="JnxBYnWDBMj8whs_ps-o-6" target="JnxBYnWDBMj8whs_ps-o-4" edge="1">
          <mxGeometry relative="1" as="geometry" />
        </mxCell>
        <mxCell id="JnxBYnWDBMj8whs_ps-o-15" value="Control contrast" style="edgeLabel;html=1;align=center;verticalAlign=middle;resizable=0;points=[];" parent="JnxBYnWDBMj8whs_ps-o-12" vertex="1" connectable="0">
          <mxGeometry x="-0.4667" y="-3" relative="1" as="geometry">
            <mxPoint x="3" as="offset" />
          </mxGeometry>
        </mxCell>
        <mxCell id="JnxBYnWDBMj8whs_ps-o-6" value="Potentiometer" style="rounded=1;whiteSpace=wrap;html=1;" parent="1" vertex="1">
          <mxGeometry x="360" y="10" width="120" height="60" as="geometry" />
        </mxCell>
        <mxCell id="K3DkYKGOGh4tOTdBUoB2-3" style="edgeStyle=orthogonalEdgeStyle;rounded=0;orthogonalLoop=1;jettySize=auto;html=1;exitX=1;exitY=0.5;exitDx=0;exitDy=0;entryX=0.5;entryY=1;entryDx=0;entryDy=0;" edge="1" parent="1" source="JnxBYnWDBMj8whs_ps-o-7" target="K3DkYKGOGh4tOTdBUoB2-1">
          <mxGeometry relative="1" as="geometry" />
        </mxCell>
        <mxCell id="JnxBYnWDBMj8whs_ps-o-7" value="Red LED" style="rounded=1;whiteSpace=wrap;html=1;" parent="1" vertex="1">
          <mxGeometry x="360" y="250" width="120" height="60" as="geometry" />
        </mxCell>
        <mxCell id="K3DkYKGOGh4tOTdBUoB2-4" style="edgeStyle=orthogonalEdgeStyle;rounded=0;orthogonalLoop=1;jettySize=auto;html=1;exitX=1;exitY=0.5;exitDx=0;exitDy=0;entryX=0.5;entryY=1;entryDx=0;entryDy=0;" edge="1" parent="1" source="K3DkYKGOGh4tOTdBUoB2-1" target="JnxBYnWDBMj8whs_ps-o-2">
          <mxGeometry relative="1" as="geometry">
            <Array as="points">
              <mxPoint x="660" y="200" />
              <mxPoint x="660" y="330" />
              <mxPoint x="90" y="330" />
            </Array>
          </mxGeometry>
        </mxCell>
        <mxCell id="K3DkYKGOGh4tOTdBUoB2-1" value="Timer" style="rounded=1;whiteSpace=wrap;html=1;" vertex="1" parent="1">
          <mxGeometry x="520" y="170" width="120" height="60" as="geometry" />
        </mxCell>
      </root>
    </mxGraphModel>
  </diagram>
</mxfile>
